<?xml version="1.0" standalone="no"?>
<!DOCTYPE svg PUBLIC "-//W3C//DTD SVG 20010904//EN"
 "http://www.w3.org/TR/2001/REC-SVG-20010904/DTD/svg10.dtd">
<svg version="1.0" xmlns="http://www.w3.org/2000/svg"
 width="853.000000pt" height="1280.000000pt" viewBox="0 0 853.000000 1280.000000"
 preserveAspectRatio="xMidYMid meet">
<g transform="translate(0.000000,1280.000000) scale(0.100000,-0.100000)"
fill="#000000" stroke="none">
<path d="M4120 10814 c-116 -8 -227 -26 -266 -44 -41 -18 -42 -19 -49 -81 -3
-35 -13 -96 -21 -136 -19 -100 -18 -240 2 -289 15 -36 16 -75 5 -459 -12 -428
-36 -1142 -46 -1361 -11 -257 -33 -302 -250 -524 -225 -229 -298 -331 -368
-515 -65 -169 -62 -90 -59 -1740 2 -825 8 -2121 12 -2880 9 -1486 9 -1492 62
-1633 49 -130 166 -206 423 -272 249 -64 548 -92 870 -80 444 17 725 85 867
209 52 46 85 120 115 252 21 94 23 487 4 1039 -10 311 -10 724 0 2155 14 2054
7 2689 -32 2860 -39 169 -206 405 -461 650 -82 80 -130 151 -163 245 -34 95
-50 448 -65 1363 -9 563 -9 644 5 696 18 72 7 237 -25 378 -24 102 -43 127
-114 150 -51 16 -313 26 -446 17z"/>
</g>
</svg>
